<svg xmlns="http://www.w3.org/2000/svg" xmlns:xlink="http://www.w3.org/1999/xlink" width="500" zoomAndPan="magnify" viewBox="0 0 375 374.999991" height="500" preserveAspectRatio="xMidYMid meet" version="1.0"><defs><g/><clipPath id="54e910329a"><path d="M 133.890625 139.417969 L 229.890625 139.417969 L 229.890625 235.417969 L 133.890625 235.417969 Z M 133.890625 139.417969 " clip-rule="nonzero"/></clipPath></defs><g clip-path="url(#54e910329a)"><path fill="#d9d9d9" d="M 229.890625 187.417969 C 229.890625 188.988281 229.8125 190.554688 229.65625 192.121094 C 229.503906 193.683594 229.273438 195.238281 228.964844 196.78125 C 228.660156 198.320312 228.277344 199.84375 227.820312 201.351562 C 227.367188 202.855469 226.835938 204.332031 226.234375 205.785156 C 225.632812 207.238281 224.960938 208.65625 224.222656 210.042969 C 223.480469 211.429688 222.671875 212.777344 221.800781 214.082031 C 220.925781 215.390625 219.992188 216.652344 218.992188 217.867188 C 217.996094 219.082031 216.941406 220.246094 215.832031 221.355469 C 214.71875 222.46875 213.554688 223.523438 212.339844 224.519531 C 211.125 225.519531 209.863281 226.453125 208.554688 227.328125 C 207.25 228.199219 205.902344 229.007812 204.515625 229.75 C 203.128906 230.488281 201.710938 231.160156 200.257812 231.761719 C 198.804688 232.363281 197.328125 232.894531 195.824219 233.347656 C 194.316406 233.804688 192.796875 234.1875 191.253906 234.492188 C 189.710938 234.800781 188.160156 235.03125 186.59375 235.183594 C 185.03125 235.339844 183.460938 235.417969 181.890625 235.417969 C 180.316406 235.417969 178.75 235.339844 177.183594 235.183594 C 175.621094 235.03125 174.066406 234.800781 172.523438 234.492188 C 170.984375 234.1875 169.460938 233.804688 167.957031 233.347656 C 166.449219 232.894531 164.972656 232.363281 163.519531 231.761719 C 162.066406 231.160156 160.648438 230.488281 159.261719 229.75 C 157.875 229.007812 156.527344 228.199219 155.222656 227.328125 C 153.914062 226.453125 152.652344 225.519531 151.4375 224.519531 C 150.222656 223.523438 149.058594 222.46875 147.949219 221.355469 C 146.835938 220.246094 145.78125 219.082031 144.785156 217.867188 C 143.789062 216.652344 142.851562 215.390625 141.976562 214.082031 C 141.105469 212.777344 140.296875 211.429688 139.558594 210.042969 C 138.816406 208.65625 138.144531 207.238281 137.542969 205.785156 C 136.941406 204.332031 136.414062 202.855469 135.957031 201.351562 C 135.5 199.84375 135.117188 198.320312 134.8125 196.78125 C 134.503906 195.238281 134.273438 193.683594 134.121094 192.121094 C 133.964844 190.554688 133.890625 188.988281 133.890625 187.417969 C 133.890625 185.84375 133.964844 184.277344 134.121094 182.710938 C 134.273438 181.148438 134.503906 179.59375 134.8125 178.050781 C 135.117188 176.511719 135.5 174.988281 135.957031 173.480469 C 136.414062 171.976562 136.941406 170.5 137.542969 169.046875 C 138.144531 167.59375 138.816406 166.175781 139.558594 164.789062 C 140.296875 163.402344 141.105469 162.054688 141.976562 160.75 C 142.851562 159.441406 143.789062 158.179688 144.785156 156.964844 C 145.78125 155.75 146.835938 154.585938 147.949219 153.476562 C 149.058594 152.363281 150.222656 151.308594 151.4375 150.3125 C 152.652344 149.3125 153.914062 148.378906 155.222656 147.503906 C 156.527344 146.632812 157.875 145.824219 159.261719 145.082031 C 160.648438 144.34375 162.066406 143.671875 163.519531 143.070312 C 164.972656 142.46875 166.449219 141.9375 167.957031 141.484375 C 169.460938 141.027344 170.984375 140.644531 172.523438 140.339844 C 174.066406 140.03125 175.621094 139.800781 177.183594 139.648438 C 178.75 139.492188 180.316406 139.417969 181.890625 139.417969 C 183.460938 139.417969 185.03125 139.492188 186.59375 139.648438 C 188.160156 139.800781 189.710938 140.03125 191.253906 140.339844 C 192.796875 140.644531 194.316406 141.027344 195.824219 141.484375 C 197.328125 141.9375 198.804688 142.46875 200.257812 143.070312 C 201.710938 143.671875 203.128906 144.34375 204.515625 145.082031 C 205.902344 145.824219 207.25 146.632812 208.554688 147.503906 C 209.863281 148.378906 211.125 149.3125 212.339844 150.3125 C 213.554688 151.308594 214.71875 152.363281 215.832031 153.476562 C 216.941406 154.585938 217.996094 155.75 218.992188 156.964844 C 219.992188 158.179688 220.925781 159.441406 221.800781 160.75 C 222.671875 162.054688 223.480469 163.402344 224.222656 164.789062 C 224.960938 166.175781 225.632812 167.59375 226.234375 169.046875 C 226.835938 170.5 227.367188 171.976562 227.820312 173.480469 C 228.277344 174.988281 228.660156 176.511719 228.964844 178.050781 C 229.273438 179.59375 229.503906 181.148438 229.65625 182.710938 C 229.8125 184.277344 229.890625 185.84375 229.890625 187.417969 Z M 229.890625 187.417969 " fill-opacity="1" fill-rule="nonzero"/></g><g fill="#af6c43" fill-opacity="1"><g transform="translate(162.91457, 207.903404)"><g><path d="M 1.296875 0 L 1.296875 -0.59375 L 2.53125 -1.0625 C 3.78125 -1.570312 4.40625 -2.570312 4.40625 -4.0625 L 4.40625 -34.765625 C 4.40625 -36.328125 3.78125 -37.320312 2.53125 -37.75 L 1.296875 -38.234375 L 1.296875 -38.8125 L 16.828125 -38.8125 C 20.972656 -38.8125 24.546875 -38.035156 27.546875 -36.484375 C 30.546875 -34.941406 32.859375 -32.726562 34.484375 -29.84375 C 36.117188 -26.96875 36.9375 -23.507812 36.9375 -19.46875 C 36.9375 -15.351562 36.050781 -11.84375 34.28125 -8.9375 C 32.519531 -6.039062 30.0625 -3.828125 26.90625 -2.296875 C 23.75 -0.765625 20.035156 0 15.765625 0 Z M 13.234375 -1.171875 L 15.765625 -1.171875 C 18.585938 -1.171875 20.859375 -1.726562 22.578125 -2.84375 C 24.304688 -3.96875 25.570312 -5.851562 26.375 -8.5 C 27.175781 -11.144531 27.578125 -14.78125 27.578125 -19.40625 C 27.578125 -24.03125 27.175781 -27.664062 26.375 -30.3125 C 25.570312 -32.957031 24.328125 -34.835938 22.640625 -35.953125 C 20.953125 -37.078125 18.738281 -37.640625 16 -37.640625 L 13.234375 -37.640625 Z M 13.234375 -1.171875 "/></g></g></g></svg>